<svg width="98" height="65" viewBox="0 0 98 65" fill="none" xmlns="http://www.w3.org/2000/svg">
<rect x="16" width="68" height="45" rx="10" fill="white"/>
<g filter="url(#filter0_d_628_23837)">
<path d="M44.2357 15.3825L41.8047 29.6485H45.6927L48.1257 15.3825H44.2357Z" fill="#1434CB"/>
<path d="M38.5453 15.3985L34.7373 25.1275L34.3313 23.6585C33.5803 21.8885 31.4483 19.3465 28.9453 17.7445L32.4273 29.6415L36.5413 29.6345L42.6643 15.3955L38.5453 15.3985Z" fill="#1434CB"/>
<path d="M32.854 16.4195C32.628 15.5505 31.973 15.2915 31.16 15.2605H25.132L25.082 15.5445C29.773 16.6825 32.877 19.4245 34.165 22.7215L32.854 16.4195Z" fill="#1434CB"/>
<path d="M56.005 18.1175C57.277 18.0975 58.199 18.3755 58.915 18.6635L59.266 18.8285L59.792 15.7365C59.022 15.4475 57.815 15.1375 56.309 15.1375C52.467 15.1375 49.759 17.0725 49.738 19.8455C49.713 21.8945 51.667 23.0385 53.143 23.7215C54.658 24.4215 55.166 24.8665 55.159 25.4915C55.147 26.4465 53.951 26.8845 52.834 26.8845C51.277 26.8845 50.45 26.6695 49.173 26.1375L48.672 25.9095L48.125 29.1025C49.035 29.5015 50.714 29.8445 52.457 29.8625C56.544 29.8625 59.2 27.9505 59.228 24.9875C59.245 23.3665 58.208 22.1295 55.961 21.1145C54.601 20.4525 53.769 20.0125 53.777 19.3445C53.777 18.7515 54.483 18.1175 56.005 18.1175Z" fill="#1434CB"/>
<path d="M69.771 15.3985H66.767C65.834 15.3985 65.14 15.6525 64.73 16.5825L58.957 29.6565H63.04C63.04 29.6565 63.706 27.8985 63.857 27.5135C64.304 27.5135 68.271 27.5195 68.836 27.5195C68.952 28.0175 69.31 29.6565 69.31 29.6565H72.917L69.771 15.3985ZM64.976 24.5935C65.296 23.7745 66.525 20.6065 66.525 20.6065C66.504 20.6455 66.842 19.7815 67.043 19.2445L67.305 20.4745C67.305 20.4745 68.05 23.8805 68.206 24.5935H64.976Z" fill="#1434CB"/>
</g>
<defs>
<filter id="filter0_d_628_23837" x="0.0820312" y="0.137512" width="97.835" height="64.725" filterUnits="userSpaceOnUse" color-interpolation-filters="sRGB">
<feFlood flood-opacity="0" result="BackgroundImageFix"/>
<feColorMatrix in="SourceAlpha" type="matrix" values="0 0 0 0 0 0 0 0 0 0 0 0 0 0 0 0 0 0 127 0" result="hardAlpha"/>
<feOffset dy="10"/>
<feGaussianBlur stdDeviation="12.5"/>
<feComposite in2="hardAlpha" operator="out"/>
<feColorMatrix type="matrix" values="0 0 0 0 0.145098 0 0 0 0 0.435294 0 0 0 0 1 0 0 0 0.3 0"/>
<feBlend mode="normal" in2="BackgroundImageFix" result="effect1_dropShadow_628_23837"/>
<feBlend mode="normal" in="SourceGraphic" in2="effect1_dropShadow_628_23837" result="shape"/>
</filter>
</defs>
</svg>
