<svg width="212" height="100" viewBox="0 0 212 100" fill="none" xmlns="http://www.w3.org/2000/svg">
<g filter="url(#filter0_d_963_5968)">
<path d="M113.915 50.8118L110.593 45.0225H108.68V50.8118H104.652V33.1923H111.7C113.378 33.1923 114.804 33.7798 115.979 34.9541C117.153 36.1289 117.741 37.5552 117.741 39.233C117.741 40.307 117.443 41.3012 116.847 42.2158C116.251 43.1308 115.467 43.8393 114.494 44.3428L118.244 50.8118H113.915ZM108.68 36.9679V41.4986H111.7C112.254 41.4986 112.728 41.2807 113.122 40.8441C113.516 40.4081 113.714 39.8712 113.714 39.2333C113.714 38.5959 113.516 38.059 113.122 37.6224C112.728 37.1863 112.254 36.9679 111.7 36.9679H108.68Z" fill="white"/>
<path d="M122.75 46.0295C123.186 47.2043 124.193 47.7913 125.771 47.7913C126.794 47.7913 127.599 47.4729 128.187 46.8349L131.207 48.5718C129.965 50.3003 128.137 51.1643 125.72 51.1643C123.606 51.1643 121.915 50.535 120.648 49.2764C119.381 48.0179 118.748 46.4322 118.748 44.5192C118.748 42.6232 119.373 41.0417 120.623 39.7745C121.873 38.5078 123.48 37.8741 125.444 37.8741C127.272 37.8741 128.795 38.5076 130.012 39.7745C131.229 41.0417 131.837 42.6232 131.837 44.5192C131.837 45.0563 131.786 45.5598 131.686 46.0295H122.75V46.0295ZM122.675 43.2102H128.087C127.717 41.8847 126.828 41.2218 125.419 41.2218C123.959 41.2218 123.044 41.885 122.675 43.2102Z" fill="white"/>
<path d="M148.071 37.8741C149.515 37.8741 150.672 38.3485 151.545 39.2962C152.417 40.2444 152.854 41.5072 152.854 43.0845V50.8119H149.078V43.4118C149.078 42.7744 148.923 42.2709 148.613 41.9015C148.302 41.5327 147.853 41.3478 147.266 41.3478C146.645 41.3478 146.162 41.5579 145.819 41.9771C145.475 42.3966 145.303 42.9758 145.303 43.714V50.8122H141.527V43.4121C141.527 42.7747 141.372 42.2711 141.061 41.9018C140.751 41.5329 140.302 41.3481 139.715 41.3481C139.094 41.3481 138.611 41.5581 138.267 41.9774C137.923 42.3969 137.751 42.976 137.751 43.7143V50.8125H133.976V38.2272H137.751V39.3849C138.439 38.3781 139.563 37.8746 141.124 37.8746C142.584 37.8746 143.683 38.4283 144.422 39.5359C145.193 38.428 146.41 37.8741 148.071 37.8741Z" fill="white"/>
<path d="M166.497 41.6748C167.94 42.5978 168.662 43.9236 168.662 45.6518C168.662 47.1789 168.116 48.4207 167.026 49.3771C165.935 50.3334 164.584 50.8118 162.973 50.8118H155.573V33.1923H162.47C164.047 33.1923 165.369 33.658 166.435 34.5892C167.5 35.5204 168.033 36.733 168.033 38.2262C168.033 39.636 167.52 40.7856 166.497 41.6748ZM162.47 36.9679H159.6V40.0891H162.47C162.923 40.0891 163.292 39.9424 163.577 39.6486C163.863 39.3551 164.005 38.9815 164.005 38.5284C164.005 38.0753 163.863 37.702 163.577 37.4082C163.292 37.1149 162.923 36.9679 162.47 36.9679ZM162.973 47.0361C163.477 47.0361 163.879 46.8812 164.181 46.5704C164.483 46.2601 164.634 45.8529 164.634 45.3496C164.634 44.8461 164.483 44.4395 164.181 44.1289C163.879 43.8186 163.476 43.6632 162.973 43.6632H159.6V47.0361H162.973V47.0361Z" fill="white"/>
<path d="M174.035 36.4519C173.59 36.8966 173.057 37.1189 172.436 37.1189C171.815 37.1189 171.282 36.8969 170.838 36.4519C170.393 36.0074 170.171 35.4745 170.171 34.8536C170.171 34.233 170.393 33.7001 170.838 33.2553C171.282 32.8109 171.815 32.5883 172.436 32.5883C173.057 32.5883 173.59 32.8109 174.035 33.2553C174.479 33.7001 174.702 34.233 174.702 34.8536C174.702 35.4745 174.479 36.0074 174.035 36.4519ZM170.548 50.8118V38.2265H174.324V50.8118H170.548Z" fill="white"/>
<path d="M181.774 47.288H186.783V50.8119H176.715V48.2947L181.472 41.7505H176.967V38.2266H186.532V40.7437L181.774 47.288Z" fill="white"/>
</g>
<g filter="url(#filter1_d_963_5968)">
<path d="M52.0404 52.8431C54.3942 52.8431 56.3024 50.9349 56.3024 48.581C56.3024 46.2272 54.3942 44.319 52.0404 44.319C49.6865 44.319 47.7783 46.2272 47.7783 48.581C47.7783 50.9349 49.6865 52.8431 52.0404 52.8431Z" fill="white"/>
<path d="M84.9779 23.1715C58.5195 18.0379 41.9594 30.4545 30.8181 47.1773L30.7335 47.2693C30.5027 47.5194 30.3201 47.81 30.195 48.1264V48.1264C29.9739 48.6808 29.9398 49.2922 30.0979 49.8677C30.256 50.4432 30.5977 50.9514 31.071 51.3151V51.3151C31.6229 51.739 32.3155 51.9372 33.0081 51.8692C33.7008 51.8013 34.3417 51.4724 34.8007 50.9493C44.595 39.7644 57.4171 37.716 72.6729 43.0199C73.3482 43.2538 74.0881 43.2148 74.735 42.9111C75.3819 42.6074 75.8846 42.063 76.1359 41.394L76.1536 41.3467C76.4106 40.6681 76.3877 39.9152 76.0898 39.2536C75.7919 38.5919 75.2434 38.0756 74.5649 37.8182C65.6252 34.4649 57.576 33.7188 50.3473 35.3226C60.1794 28.9049 71.1335 25.8159 83.4201 28.4294C84.1722 28.59 84.9573 28.4533 85.6109 28.048C86.2644 27.6426 86.7357 27 86.926 26.2549V26.2549C87.0108 25.9241 87.0271 25.5794 86.9739 25.2421C86.9207 24.9047 86.7992 24.5818 86.6168 24.2931C86.4344 24.0044 86.1949 23.756 85.9131 23.5632C85.6313 23.3703 85.3131 23.237 84.9779 23.1715V23.1715Z" fill="url(#paint0_linear_963_5968)"/>
<path d="M31.4667 55.1615L31.4844 55.1142C31.7359 54.4454 32.2386 53.9011 32.8855 53.5976C33.5323 53.294 34.2722 53.255 34.9474 53.489C50.2058 58.7929 63.0279 56.7439 72.8228 45.5596C73.2817 45.0364 73.9226 44.7074 74.6153 44.6394C75.308 44.5715 76.0006 44.7697 76.5525 45.1938V45.1938C76.8559 45.4264 77.1073 45.7198 77.2905 46.0552C77.4738 46.3907 77.5848 46.7608 77.6166 47.1417C77.6484 47.5226 77.6001 47.906 77.475 48.2671C77.3499 48.6283 77.1506 48.9593 76.8899 49.2389C65.3229 61.6 50.6983 65.4685 33.0585 58.6907C32.3808 58.432 31.8331 57.9156 31.5348 57.2544C31.2366 56.5931 31.2121 55.8408 31.4667 55.1615V55.1615Z" fill="url(#paint1_linear_963_5968)"/>
</g>
<defs>
<filter id="filter0_d_963_5968" x="79.6523" y="12.5883" width="132.131" height="68.576" filterUnits="userSpaceOnUse" color-interpolation-filters="sRGB">
<feFlood flood-opacity="0" result="BackgroundImageFix"/>
<feColorMatrix in="SourceAlpha" type="matrix" values="0 0 0 0 0 0 0 0 0 0 0 0 0 0 0 0 0 0 127 0" result="hardAlpha"/>
<feOffset dy="5"/>
<feGaussianBlur stdDeviation="12.5"/>
<feColorMatrix type="matrix" values="0 0 0 0 0 0 0 0 0 0 0 0 0 0 0 0 0 0 0.15 0"/>
<feBlend mode="normal" in2="BackgroundImageFix" result="effect1_dropShadow_963_5968"/>
<feBlend mode="normal" in="SourceGraphic" in2="effect1_dropShadow_963_5968" result="shape"/>
</filter>
<filter id="filter1_d_963_5968" x="0" y="0" width="117.005" height="100" filterUnits="userSpaceOnUse" color-interpolation-filters="sRGB">
<feFlood flood-opacity="0" result="BackgroundImageFix"/>
<feColorMatrix in="SourceAlpha" type="matrix" values="0 0 0 0 0 0 0 0 0 0 0 0 0 0 0 0 0 0 127 0" result="hardAlpha"/>
<feOffset dy="8"/>
<feGaussianBlur stdDeviation="15"/>
<feComposite in2="hardAlpha" operator="out"/>
<feColorMatrix type="matrix" values="0 0 0 0 0 0 0 0 0 0.521569 0 0 0 0 1 0 0 0 0.9 0"/>
<feBlend mode="normal" in2="BackgroundImageFix" result="effect1_dropShadow_963_5968"/>
<feBlend mode="normal" in="SourceGraphic" in2="effect1_dropShadow_963_5968" result="shape"/>
</filter>
<linearGradient id="paint0_linear_963_5968" x1="31.9002" y1="50.8862" x2="63.3027" y2="-9.01819" gradientUnits="userSpaceOnUse">
<stop stop-color="#0085FF"/>
<stop offset="1" stop-color="#8F00FF"/>
</linearGradient>
<linearGradient id="paint1_linear_963_5968" x1="32.8365" y1="61.4209" x2="47.4325" y2="22.4945" gradientUnits="userSpaceOnUse">
<stop stop-color="#0085FF"/>
<stop offset="1" stop-color="#8F00FF"/>
</linearGradient>
</defs>
</svg>
