<svg width="118" height="100" viewBox="0 0 118 100" fill="none" xmlns="http://www.w3.org/2000/svg">
<g filter="url(#filter0_d_1191_29936)">
<path d="M52.0413 52.843C54.3952 52.843 56.3034 50.9348 56.3034 48.5809C56.3034 46.227 54.3952 44.3188 52.0413 44.3188C49.6875 44.3188 47.7793 46.227 47.7793 48.5809C47.7793 50.9348 49.6875 52.843 52.0413 52.843Z" fill="white"/>
<path d="M84.9779 23.1715C58.5195 18.0379 41.9594 30.4545 30.8181 47.1773L30.7335 47.2693C30.5027 47.5194 30.3201 47.81 30.195 48.1264V48.1264C29.9739 48.6808 29.9398 49.2922 30.0979 49.8677C30.256 50.4432 30.5977 50.9514 31.071 51.3151V51.3151C31.6229 51.739 32.3155 51.9372 33.0081 51.8692C33.7008 51.8013 34.3417 51.4724 34.8007 50.9493C44.595 39.7644 57.4171 37.716 72.6729 43.0199C73.3482 43.2538 74.0881 43.2148 74.735 42.9111C75.3819 42.6074 75.8846 42.063 76.1359 41.394L76.1536 41.3467C76.4106 40.6681 76.3877 39.9152 76.0898 39.2536C75.7919 38.5919 75.2434 38.0756 74.5649 37.8182C65.6252 34.4649 57.576 33.7188 50.3473 35.3226C60.1794 28.9049 71.1335 25.8159 83.4201 28.4294C84.1722 28.59 84.9573 28.4533 85.6109 28.048C86.2644 27.6426 86.7357 27 86.926 26.2549V26.2549C87.0108 25.9241 87.0271 25.5794 86.9739 25.2421C86.9207 24.9047 86.7992 24.5818 86.6168 24.2931C86.4344 24.0044 86.1949 23.756 85.9131 23.5632C85.6313 23.3703 85.3131 23.237 84.9779 23.1715V23.1715Z" fill="url(#paint0_linear_1191_29936)"/>
<path d="M31.4657 55.1616L31.4834 55.1143C31.7349 54.4455 32.2376 53.9013 32.8845 53.5977C33.5314 53.2941 34.2712 53.2551 34.9464 53.4891C50.2048 58.793 63.0269 56.744 72.8218 45.5597C73.2808 45.0365 73.9216 44.7075 74.6144 44.6396C75.3071 44.5716 75.9997 44.7698 76.5515 45.1939V45.1939C76.8549 45.4265 77.1063 45.7199 77.2895 46.0554C77.4728 46.3908 77.5839 46.7609 77.6156 47.1418C77.6474 47.5227 77.5992 47.9061 77.474 48.2673C77.3489 48.6284 77.1496 48.9594 76.889 49.239C65.3219 61.6001 50.6973 65.4686 33.0576 58.6909C32.3799 58.4321 31.8321 57.9158 31.5338 57.2545C31.2356 56.5933 31.2111 55.8409 31.4657 55.1616V55.1616Z" fill="url(#paint1_linear_1191_29936)"/>
</g>
<defs>
<filter id="filter0_d_1191_29936" x="0" y="0" width="117.004" height="100" filterUnits="userSpaceOnUse" color-interpolation-filters="sRGB">
<feFlood flood-opacity="0" result="BackgroundImageFix"/>
<feColorMatrix in="SourceAlpha" type="matrix" values="0 0 0 0 0 0 0 0 0 0 0 0 0 0 0 0 0 0 127 0" result="hardAlpha"/>
<feOffset dy="8"/>
<feGaussianBlur stdDeviation="15"/>
<feComposite in2="hardAlpha" operator="out"/>
<feColorMatrix type="matrix" values="0 0 0 0 0 0 0 0 0 0.521569 0 0 0 0 1 0 0 0 0.9 0"/>
<feBlend mode="normal" in2="BackgroundImageFix" result="effect1_dropShadow_1191_29936"/>
<feBlend mode="normal" in="SourceGraphic" in2="effect1_dropShadow_1191_29936" result="shape"/>
</filter>
<linearGradient id="paint0_linear_1191_29936" x1="31.9002" y1="50.8862" x2="63.3027" y2="-9.01819" gradientUnits="userSpaceOnUse">
<stop stop-color="#0085FF"/>
<stop offset="1" stop-color="#8F00FF"/>
</linearGradient>
<linearGradient id="paint1_linear_1191_29936" x1="32.8355" y1="61.421" x2="47.4315" y2="22.4946" gradientUnits="userSpaceOnUse">
<stop stop-color="#0085FF"/>
<stop offset="1" stop-color="#8F00FF"/>
</linearGradient>
</defs>
</svg>
