<svg width="24" height="24" viewBox="0 0 24 24" fill="none" xmlns="http://www.w3.org/2000/svg">
<path d="M19.6484 9.04L14.8084 8.62L12.9184 4.17C12.5784 3.36 11.4184 3.36 11.0784 4.17L9.18836 8.63L4.35836 9.04C3.47836 9.11 3.11836 10.21 3.78836 10.79L7.45836 13.97L6.35836 18.69C6.15836 19.55 7.08836 20.23 7.84836 19.77L11.9984 17.27L16.1484 19.78C16.9084 20.24 17.8384 19.56 17.6384 18.7L16.5384 13.97L20.2084 10.79C20.8784 10.21 20.5284 9.11 19.6484 9.04ZM11.9984 15.4L8.23836 17.67L9.23836 13.39L5.91836 10.51L10.2984 10.13L11.9984 6.1L13.7084 10.14L18.0884 10.52L14.7684 13.4L15.7684 17.68L11.9984 15.4Z" fill="#767676"/>
</svg>
