<svg width="133" height="70" viewBox="0 0 133 70" fill="none" xmlns="http://www.w3.org/2000/svg">
<g filter="url(#filter0_d_963_5969)">
<path d="M34.9154 38.8118L31.5928 33.0225H29.6798V38.8118H25.6523V21.1923H32.7001C34.378 21.1923 35.8043 21.7798 36.9791 22.9541C38.1534 24.1289 38.7409 25.5552 38.7409 27.233C38.7409 28.307 38.4427 29.3012 37.8473 30.2158C37.2513 31.1308 36.4669 31.8393 35.4937 32.3428L39.2442 38.8118H34.9154ZM29.6798 24.9679V29.4986H32.7001C33.2538 29.4986 33.7279 29.2807 34.1223 28.8441C34.5163 28.4081 34.7137 27.8712 34.7137 27.2333C34.7137 26.5959 34.5163 26.059 34.1223 25.6224C33.7277 25.1863 33.2538 24.9679 32.7001 24.9679H29.6798Z" fill="white"/>
<path d="M43.7503 34.0295C44.1863 35.2043 45.1934 35.7913 46.7706 35.7913C47.794 35.7913 48.5994 35.4729 49.1869 34.8349L52.2073 36.5718C50.9653 38.3003 49.1365 39.1643 46.7202 39.1643C44.6058 39.1643 42.9152 38.535 41.6485 37.2764C40.3813 36.0179 39.748 34.4322 39.748 32.5192C39.748 30.6232 40.3729 29.0417 41.6233 27.7745C42.8732 26.5078 44.4801 25.8741 46.4435 25.8741C48.2723 25.8741 49.7952 26.5076 51.012 27.7745C52.2286 29.0417 52.8369 30.6232 52.8369 32.5192C52.8369 33.0563 52.7865 33.5598 52.6859 34.0295H43.7503ZM43.6749 31.2102H49.0867C48.7173 29.8847 47.8281 29.2218 46.4186 29.2218C44.9587 29.2218 44.0438 29.885 43.6749 31.2102Z" fill="white"/>
<path d="M69.0715 25.8741C70.5146 25.8741 71.6723 26.3485 72.545 27.2962C73.4173 28.2444 73.8539 29.5072 73.8539 31.0845V38.8119H70.0782V31.4118C70.0782 30.7744 69.9228 30.2709 69.6125 29.9015C69.302 29.5327 68.853 29.3478 68.266 29.3478C67.6451 29.3478 67.1624 29.5579 66.8187 29.9771C66.4745 30.3966 66.3026 30.9758 66.3026 31.714V38.8122H62.5269V31.4121C62.5269 30.7747 62.3715 30.2711 62.0612 29.9018C61.7506 29.5329 61.3017 29.3481 60.7147 29.3481C60.0938 29.3481 59.611 29.5581 59.2674 29.9774C58.9232 30.3969 58.7513 30.976 58.7513 31.7143V38.8125H54.9756V26.2272H58.7513V27.3849C59.4391 26.3781 60.5635 25.8746 62.1242 25.8746C63.5841 25.8746 64.6831 26.4283 65.4215 27.5359C66.1934 26.428 67.4102 25.8741 69.0715 25.8741Z" fill="white"/>
<path d="M87.497 29.6748C88.9401 30.5978 89.6618 31.9236 89.6618 33.6518C89.6618 35.1789 89.1163 36.4207 88.0257 37.3771C86.9347 38.3334 85.5842 38.8118 83.9734 38.8118H76.5732V21.1923H83.4701C85.0471 21.1923 86.3687 21.658 87.4345 22.5892C88.4998 23.5204 89.0328 24.733 89.0328 26.2262C89.0325 27.636 88.5203 28.7856 87.497 29.6748ZM83.4698 24.9679H80.6004V28.0891H83.4698C83.9229 28.0891 84.2918 27.9424 84.5774 27.6486C84.8625 27.3551 85.0053 26.9815 85.0053 26.5284C85.0053 26.0753 84.8625 25.702 84.5774 25.4082C84.2918 25.1149 83.9229 24.9679 83.4698 24.9679ZM83.9731 35.0361C84.4766 35.0361 84.8793 34.8812 85.1812 34.5704C85.4834 34.2601 85.6344 33.8529 85.6344 33.3496C85.6344 32.8461 85.4834 32.4395 85.1812 32.1289C84.8791 31.8186 84.4764 31.6632 83.9731 31.6632H80.6001V35.0361H83.9731Z" fill="white"/>
<path d="M95.0345 24.4519C94.5898 24.8966 94.0569 25.1189 93.4362 25.1189C92.8154 25.1189 92.2824 24.8969 91.838 24.4519C91.3933 24.0074 91.1709 23.4745 91.1709 22.8536C91.1709 22.233 91.393 21.7001 91.838 21.2553C92.2824 20.8109 92.8154 20.5883 93.4362 20.5883C94.0569 20.5883 94.5898 20.8109 95.0345 21.2553C95.479 21.7001 95.7016 22.233 95.7016 22.8536C95.7016 23.4745 95.479 24.0074 95.0345 24.4519ZM91.5484 38.8118V26.2265H95.3241V38.8118H91.5484Z" fill="white"/>
<path d="M102.774 35.288H107.783V38.8119H97.7148V36.2947L102.472 29.7505H97.9666V26.2266H107.532V28.7437L102.774 35.288Z" fill="white"/>
</g>
<defs>
<filter id="filter0_d_963_5969" x="0.652344" y="0.588257" width="132.131" height="68.576" filterUnits="userSpaceOnUse" color-interpolation-filters="sRGB">
<feFlood flood-opacity="0" result="BackgroundImageFix"/>
<feColorMatrix in="SourceAlpha" type="matrix" values="0 0 0 0 0 0 0 0 0 0 0 0 0 0 0 0 0 0 127 0" result="hardAlpha"/>
<feOffset dy="5"/>
<feGaussianBlur stdDeviation="12.5"/>
<feColorMatrix type="matrix" values="0 0 0 0 0 0 0 0 0 0 0 0 0 0 0 0 0 0 0.15 0"/>
<feBlend mode="normal" in2="BackgroundImageFix" result="effect1_dropShadow_963_5969"/>
<feBlend mode="normal" in="SourceGraphic" in2="effect1_dropShadow_963_5969" result="shape"/>
</filter>
</defs>
</svg>
