<svg width="118" height="100" fill="none" xmlns="http://www.w3.org/2000/svg"><g filter="url(#a)"><path d="M52.041 52.843a4.262 4.262 0 1 0 0-8.524 4.262 4.262 0 0 0 0 8.524Z" fill="#fff"/><path d="M84.978 23.172c-26.458-5.134-43.019 7.282-54.16 24.005l-.085.092c-.23.25-.413.541-.538.857a2.74 2.74 0 0 0 .876 3.19 2.74 2.74 0 0 0 3.73-.367c9.794-11.185 22.616-13.233 37.872-7.93a2.741 2.741 0 0 0 3.463-1.625l.018-.047a2.737 2.737 0 0 0-1.59-3.529c-8.939-3.353-16.988-4.1-24.217-2.495 9.832-6.418 20.786-9.507 33.073-6.894a2.977 2.977 0 0 0 3.506-2.174 2.506 2.506 0 0 0-1.948-3.083Z" fill="url(#b)"/><path d="m31.466 55.162.017-.048a2.741 2.741 0 0 1 3.463-1.625c15.259 5.304 28.08 3.255 37.876-7.93a2.74 2.74 0 0 1 3.73-.365 2.74 2.74 0 0 1 .337 4.045C65.322 61.6 50.697 65.469 33.058 58.691a2.746 2.746 0 0 1-1.592-3.53Z" fill="url(#c)"/></g><defs><linearGradient id="b" x1="31.9" y1="50.886" x2="63.303" y2="-9.018" gradientUnits="userSpaceOnUse"><stop stop-color="#0085FF"/><stop offset="1" stop-color="#8F00FF"/></linearGradient><linearGradient id="c" x1="32.836" y1="61.421" x2="47.431" y2="22.495" gradientUnits="userSpaceOnUse"><stop stop-color="#0085FF"/><stop offset="1" stop-color="#8F00FF"/></linearGradient><filter id="a" x="0" y="0" width="117.004" height="100" filterUnits="userSpaceOnUse" color-interpolation-filters="sRGB"><feFlood flood-opacity="0" result="BackgroundImageFix"/><feColorMatrix in="SourceAlpha" values="0 0 0 0 0 0 0 0 0 0 0 0 0 0 0 0 0 0 127 0" result="hardAlpha"/><feOffset dy="8"/><feGaussianBlur stdDeviation="15"/><feComposite in2="hardAlpha" operator="out"/><feColorMatrix values="0 0 0 0 0 0 0 0 0 0.521569 0 0 0 0 1 0 0 0 0.9 0"/><feBlend in2="BackgroundImageFix" result="effect1_dropShadow_1191_29936"/><feBlend in="SourceGraphic" in2="effect1_dropShadow_1191_29936" result="shape"/></filter></defs></svg>