<svg width="212" height="100" fill="none" xmlns="http://www.w3.org/2000/svg"><g filter="url(#a)" fill="#fff"><path d="m113.915 50.812-3.322-5.79h-1.913v5.79h-4.028v-17.62h7.048c1.678 0 3.104.588 4.279 1.762 1.174 1.175 1.762 2.601 1.762 4.279a5.357 5.357 0 0 1-.894 2.983 6.114 6.114 0 0 1-2.353 2.127l3.75 6.469h-4.329Zm-5.235-13.844v4.53h3.02c.554 0 1.028-.217 1.422-.654.394-.436.592-.973.592-1.61 0-.638-.198-1.175-.592-1.612-.394-.436-.868-.654-1.422-.654h-3.02ZM122.75 46.03c.436 1.174 1.443 1.761 3.021 1.761 1.023 0 1.828-.318 2.416-.956l3.02 1.737c-1.242 1.728-3.07 2.592-5.487 2.592-2.114 0-3.805-.629-5.072-1.888-1.267-1.258-1.9-2.844-1.9-4.757 0-1.896.625-3.477 1.875-4.744s2.857-1.9 4.821-1.9c1.828 0 3.351.633 4.568 1.9 1.217 1.267 1.825 2.848 1.825 4.744 0 .537-.051 1.04-.151 1.51h-8.936Zm-.075-2.82h5.412c-.37-1.325-1.259-1.988-2.668-1.988-1.46 0-2.375.663-2.744 1.988ZM148.071 37.874c1.444 0 2.601.474 3.474 1.422.872.948 1.309 2.211 1.309 3.788v7.728h-3.776v-7.4c0-.638-.155-1.141-.465-1.51-.311-.37-.76-.554-1.347-.554-.621 0-1.104.21-1.447.63-.344.419-.516.998-.516 1.736v7.098h-3.776v-7.4c0-.637-.155-1.14-.466-1.51-.31-.37-.759-.554-1.346-.554-.621 0-1.104.21-1.448.63-.344.419-.516.998-.516 1.736v7.099h-3.775V38.227h3.775v1.158c.688-1.007 1.812-1.51 3.373-1.51 1.46 0 2.559.553 3.298 1.66.771-1.107 1.988-1.66 3.649-1.66ZM166.497 41.675c1.443.923 2.165 2.249 2.165 3.977 0 1.527-.546 2.769-1.636 3.725-1.091.956-2.442 1.435-4.053 1.435h-7.4v-17.62h6.897c1.577 0 2.899.466 3.965 1.397 1.065.931 1.598 2.144 1.598 3.637 0 1.41-.513 2.56-1.536 3.449Zm-4.027-4.707h-2.87v3.121h2.87c.453 0 .822-.147 1.107-.44.286-.294.428-.668.428-1.12 0-.454-.142-.827-.428-1.12-.285-.294-.654-.441-1.107-.441Zm.503 10.068c.504 0 .906-.155 1.208-.466.302-.31.453-.717.453-1.22 0-.504-.151-.91-.453-1.221-.302-.31-.705-.466-1.208-.466H159.6v3.373h3.373ZM174.035 36.452a2.182 2.182 0 0 1-1.599.667 2.177 2.177 0 0 1-1.598-.667 2.179 2.179 0 0 1-.667-1.598c0-.621.222-1.154.667-1.599a2.18 2.18 0 0 1 1.598-.667c.621 0 1.154.223 1.599.667.444.445.667.978.667 1.599 0 .62-.223 1.153-.667 1.598Zm-3.487 14.36V38.227h3.776v12.585h-3.776ZM181.774 47.288h5.009v3.524h-10.068v-2.517l4.757-6.544h-4.505v-3.524h9.565v2.517l-4.758 6.544Z"/></g><g filter="url(#b)"><path d="M52.04 52.843a4.262 4.262 0 1 0 0-8.524 4.262 4.262 0 0 0 0 8.524Z" fill="#fff"/><path d="M84.978 23.172c-26.458-5.134-43.019 7.282-54.16 24.005l-.085.092c-.23.25-.413.541-.538.857a2.74 2.74 0 0 0 .876 3.19 2.74 2.74 0 0 0 3.73-.367c9.794-11.185 22.616-13.233 37.872-7.93a2.741 2.741 0 0 0 3.463-1.625l.018-.047a2.737 2.737 0 0 0-1.59-3.529c-8.939-3.353-16.988-4.1-24.217-2.495 9.832-6.418 20.786-9.507 33.073-6.894a2.977 2.977 0 0 0 3.506-2.174 2.506 2.506 0 0 0-1.948-3.083Z" fill="url(#c)"/><path d="m31.467 55.161.017-.047a2.74 2.74 0 0 1 3.463-1.625c15.259 5.304 28.08 3.255 37.876-7.93a2.74 2.74 0 0 1 3.73-.365 2.741 2.741 0 0 1 .337 4.045C65.323 61.6 50.698 65.469 33.059 58.69a2.746 2.746 0 0 1-1.592-3.53Z" fill="url(#d)"/></g><defs><linearGradient id="c" x1="31.9" y1="50.886" x2="63.303" y2="-9.018" gradientUnits="userSpaceOnUse"><stop stop-color="#0085FF"/><stop offset="1" stop-color="#8F00FF"/></linearGradient><linearGradient id="d" x1="32.837" y1="61.421" x2="47.432" y2="22.494" gradientUnits="userSpaceOnUse"><stop stop-color="#0085FF"/><stop offset="1" stop-color="#8F00FF"/></linearGradient><filter id="a" x="79.652" y="12.588" width="132.131" height="68.576" filterUnits="userSpaceOnUse" color-interpolation-filters="sRGB"><feFlood flood-opacity="0" result="BackgroundImageFix"/><feColorMatrix in="SourceAlpha" values="0 0 0 0 0 0 0 0 0 0 0 0 0 0 0 0 0 0 127 0" result="hardAlpha"/><feOffset dy="5"/><feGaussianBlur stdDeviation="12.5"/><feColorMatrix values="0 0 0 0 0 0 0 0 0 0 0 0 0 0 0 0 0 0 0.15 0"/><feBlend in2="BackgroundImageFix" result="effect1_dropShadow_963_5968"/><feBlend in="SourceGraphic" in2="effect1_dropShadow_963_5968" result="shape"/></filter><filter id="b" x="0" y="0" width="117.005" height="100" filterUnits="userSpaceOnUse" color-interpolation-filters="sRGB"><feFlood flood-opacity="0" result="BackgroundImageFix"/><feColorMatrix in="SourceAlpha" values="0 0 0 0 0 0 0 0 0 0 0 0 0 0 0 0 0 0 127 0" result="hardAlpha"/><feOffset dy="8"/><feGaussianBlur stdDeviation="15"/><feComposite in2="hardAlpha" operator="out"/><feColorMatrix values="0 0 0 0 0 0 0 0 0 0.521569 0 0 0 0 1 0 0 0 0.9 0"/><feBlend in2="BackgroundImageFix" result="effect1_dropShadow_963_5968"/><feBlend in="SourceGraphic" in2="effect1_dropShadow_963_5968" result="shape"/></filter></defs></svg>