<svg width="98" height="65" fill="none" xmlns="http://www.w3.org/2000/svg"><rect x="16" width="68" height="45" rx="10" fill="#fff"/><g filter="url(#a)" fill="#1434CB"><path d="m44.236 15.383-2.431 14.265h3.888l2.433-14.265h-3.89ZM38.545 15.399l-3.808 9.729-.406-1.47c-.75-1.77-2.883-4.312-5.386-5.914l3.482 11.898 4.114-.008 6.123-14.239-4.119.004Z"/><path d="M32.854 16.42c-.226-.87-.881-1.129-1.694-1.16h-6.028l-.05.284c4.691 1.139 7.795 3.88 9.083 7.177l-1.311-6.302ZM56.005 18.117a7.178 7.178 0 0 1 2.91.546l.351.165.526-3.091c-.77-.29-1.977-.6-3.483-.6-3.842 0-6.55 1.936-6.571 4.709-.025 2.049 1.929 3.192 3.405 3.875 1.515.7 2.023 1.145 2.016 1.77-.012.956-1.208 1.393-2.325 1.393-1.557 0-2.384-.215-3.661-.747l-.501-.227-.547 3.192c.91.4 2.589.742 4.332.76 4.087 0 6.743-1.911 6.771-4.874.017-1.622-1.02-2.858-3.267-3.873-1.36-.662-2.192-1.102-2.184-1.77 0-.593.706-1.227 2.228-1.227ZM69.771 15.399h-3.004c-.933 0-1.627.254-2.037 1.184l-5.773 13.074h4.083s.666-1.759.817-2.143l4.979.006c.116.497.474 2.137.474 2.137h3.607l-3.146-14.258Zm-4.795 9.194c.32-.819 1.549-3.986 1.549-3.986-.021.038.317-.825.518-1.363l.262 1.23.901 4.12h-3.23Z"/></g><defs><filter id="a" x=".082" y=".138" width="97.835" height="64.725" filterUnits="userSpaceOnUse" color-interpolation-filters="sRGB"><feFlood flood-opacity="0" result="BackgroundImageFix"/><feColorMatrix in="SourceAlpha" values="0 0 0 0 0 0 0 0 0 0 0 0 0 0 0 0 0 0 127 0" result="hardAlpha"/><feOffset dy="10"/><feGaussianBlur stdDeviation="12.5"/><feComposite in2="hardAlpha" operator="out"/><feColorMatrix values="0 0 0 0 0.145098 0 0 0 0 0.435294 0 0 0 0 1 0 0 0 0.3 0"/><feBlend in2="BackgroundImageFix" result="effect1_dropShadow_628_23837"/><feBlend in="SourceGraphic" in2="effect1_dropShadow_628_23837" result="shape"/></filter></defs></svg>