<svg width="133" height="70" fill="none" xmlns="http://www.w3.org/2000/svg"><g filter="url(#a)" fill="#fff"><path d="m34.915 38.812-3.322-5.79H29.68v5.79h-4.028v-17.62H32.7c1.678 0 3.104.588 4.28 1.762 1.173 1.175 1.76 2.601 1.76 4.279a5.361 5.361 0 0 1-.893 2.983 6.114 6.114 0 0 1-2.353 2.127l3.75 6.469h-4.329ZM29.68 24.968v4.53h3.02c.554 0 1.028-.217 1.422-.654.394-.436.592-.973.592-1.61 0-.638-.198-1.175-.592-1.612-.394-.436-.868-.654-1.422-.654h-3.02ZM43.75 34.03c.436 1.174 1.443 1.761 3.02 1.761 1.024 0 1.83-.318 2.417-.956l3.02 1.737c-1.242 1.728-3.07 2.592-5.487 2.592-2.114 0-3.805-.629-5.072-1.888-1.267-1.258-1.9-2.844-1.9-4.757 0-1.896.625-3.477 1.875-4.744s2.857-1.9 4.82-1.9c1.83 0 3.352.633 4.569 1.9s1.825 2.848 1.825 4.744c0 .537-.05 1.04-.151 1.51H43.75Zm-.075-2.82h5.412c-.37-1.325-1.259-1.988-2.668-1.988-1.46 0-2.375.663-2.744 1.988ZM69.072 25.874c1.443 0 2.6.475 3.473 1.422.872.948 1.309 2.211 1.309 3.788v7.728h-3.776v-7.4c0-.638-.155-1.141-.466-1.51-.31-.37-.759-.554-1.346-.554-.62 0-1.104.21-1.447.63-.344.419-.516.998-.516 1.736v7.098h-3.776v-7.4c0-.637-.156-1.14-.466-1.51-.31-.37-.76-.554-1.346-.554-.621 0-1.104.21-1.448.63-.344.419-.516.998-.516 1.736v7.099h-3.775V26.227h3.775v1.158c.688-1.007 1.813-1.51 3.373-1.51 1.46 0 2.56.553 3.297 1.66.772-1.107 1.99-1.66 3.65-1.66ZM87.497 29.675c1.443.923 2.165 2.249 2.165 3.977 0 1.527-.546 2.769-1.636 3.725-1.091.956-2.442 1.435-4.053 1.435h-7.4v-17.62h6.897c1.577 0 2.899.466 3.965 1.397 1.065.931 1.598 2.144 1.598 3.637 0 1.41-.513 2.56-1.536 3.449Zm-4.027-4.707H80.6v3.121h2.87c.453 0 .822-.147 1.107-.44.285-.294.428-.668.428-1.12 0-.454-.142-.827-.428-1.12-.285-.294-.654-.441-1.107-.441Zm.503 10.068c.504 0 .906-.155 1.208-.466.302-.31.453-.717.453-1.22 0-.504-.15-.91-.453-1.221-.302-.31-.705-.466-1.208-.466H80.6v3.373h3.373ZM95.034 24.452a2.18 2.18 0 0 1-1.598.667c-.62 0-1.154-.222-1.598-.667a2.18 2.18 0 0 1-.667-1.598c0-.621.222-1.154.667-1.599a2.18 2.18 0 0 1 1.598-.667c.62 0 1.154.223 1.598.667.445.445.668.978.668 1.599a2.18 2.18 0 0 1-.668 1.598Zm-3.486 14.36V26.227h3.776v12.585h-3.776ZM102.774 35.288h5.009v3.524H97.715v-2.517l4.757-6.545h-4.505v-3.523h9.565v2.517l-4.758 6.544Z"/></g><defs><filter id="a" x=".652" y=".588" width="132.131" height="68.576" filterUnits="userSpaceOnUse" color-interpolation-filters="sRGB"><feFlood flood-opacity="0" result="BackgroundImageFix"/><feColorMatrix in="SourceAlpha" values="0 0 0 0 0 0 0 0 0 0 0 0 0 0 0 0 0 0 127 0" result="hardAlpha"/><feOffset dy="5"/><feGaussianBlur stdDeviation="12.5"/><feColorMatrix values="0 0 0 0 0 0 0 0 0 0 0 0 0 0 0 0 0 0 0.15 0"/><feBlend in2="BackgroundImageFix" result="effect1_dropShadow_963_5969"/><feBlend in="SourceGraphic" in2="effect1_dropShadow_963_5969" result="shape"/></filter></defs></svg>